HIERARCHY
ROOT Hips
{
  OFFSET 279.157 85.6768 304.565
  CHANNELS 6 Xposition Yposition Zposition Zrotation Xrotation Yrotation
  JOINT LeftUpLeg
  {
    OFFSET 8.64259 1.95398 -2.38835
    CHANNELS 3 Zrotation Xrotation Yrotation
    JOINT LeftLeg
    {
      OFFSET 43.7702 0 0
      CHANNELS 3 Zrotation Xrotation Yrotation
      JOINT LeftFoot
      {
        OFFSET 40.6238 0 0
        CHANNELS 3 Zrotation Xrotation Yrotation
        JOINT LeftToeBase
        {
          OFFSET 12.7242 0 0
          CHANNELS 3 Zrotation Xrotation Yrotation
          End Site
          {
            OFFSET 0 0 0
          }
        }
      }
    }
  }
  JOINT RightUpLeg
  {
    OFFSET -8.2249 1.95398 -2.59336
    CHANNELS 3 Zrotation Xrotation Yrotation
    JOINT RightLeg
    {
      OFFSET 43.5653 0 0
      CHANNELS 3 Zrotation Xrotation Yrotation
      JOINT RightFoot
      {
        OFFSET 40.6238 0 0
        CHANNELS 3 Zrotation Xrotation Yrotation
        JOINT RightToeBase
        {
          OFFSET 12.7242 0 0
          CHANNELS 3 Zrotation Xrotation Yrotation
          End Site
          {
            OFFSET 0 0 0
          }
        }
      }
    }
  }
  JOINT Spine
  {
    OFFSET 0.165834 0.87714 6.61349
    CHANNELS 3 Zrotation Xrotation Yrotation
    JOINT Spine1
    {
      OFFSET 7.38963 1.71661e-005 0
      CHANNELS 3 Zrotation Xrotation Yrotation
      JOINT Spine2
      {
        OFFSET 11.9445 1.14441e-005 0
        CHANNELS 3 Zrotation Xrotation Yrotation
        JOINT Spine3
        {
          OFFSET 14.7254 4.19617e-005 0
          CHANNELS 3 Zrotation Xrotation Yrotation
          JOINT Spine4
          {
            OFFSET 10.9679 0 0
            CHANNELS 3 Zrotation Xrotation Yrotation
            JOINT RightShoulder
            {
              OFFSET 2.46616 -1.6653 3.69651
              CHANNELS 3 Zrotation Xrotation Yrotation
              JOINT RightArm
              {
                OFFSET 13.0012 0 0
                CHANNELS 3 Zrotation Xrotation Yrotation
                JOINT RightForeArm
                {
                  OFFSET 28.7848 1.52588e-005 0
                  CHANNELS 3 Zrotation Xrotation Yrotation
                  JOINT RightHand
                  {
                    OFFSET 26.5688 1.52588e-005 0
                    CHANNELS 3 Zrotation Xrotation Yrotation
                    End Site
                    {
                      OFFSET 0 0 0
                    }
                  }
                }
              }
            }
            JOINT LeftShoulder
            {
              OFFSET 2.38034 -1.29275 -3.7523
              CHANNELS 3 Zrotation Xrotation Yrotation
              JOINT LeftArm
              {
                OFFSET 16.3182 6.10351e-005 0
                CHANNELS 3 Zrotation Xrotation Yrotation
                JOINT LeftForeArm
                {
                  OFFSET 27.0901 0 0
                  CHANNELS 3 Zrotation Xrotation Yrotation
                  JOINT LeftHand
                  {
                    OFFSET 24.5451 1.52588e-005 0
                    CHANNELS 3 Zrotation Xrotation Yrotation
                    End Site
                    {
                      OFFSET 0 0 0
                    }
                  }
                }
              }
            }
            JOINT Neck
            {
              OFFSET 5.0226 -0.0266342 0
              CHANNELS 3 Zrotation Xrotation Yrotation
              JOINT Head
              {
                OFFSET 6.69364 2.86102e-005 0
                CHANNELS 3 Zrotation Xrotation Yrotation
                End Site
                {
                  OFFSET 0 0 0
                }
              }
            }
          }
        }
      }
    }
  }
}
MOTION
Frames:	14
Frame Time:	0.0416667
22.6453 98.5425 10.4632 -108.554 -54.1587 -108.418 -170.665 11.1142 96.7545 -67.032 18.022 2.82926 66.1682 3.95166 -1.15453 12.2793 -11.3034 5.04814 176.317 5.21908 99.5557 -24.7897 3.92027 4.20079 71.8034 -5.84401 -4.58519 10.9997 4.71244 5.10593 -0.259081 7.76411 -89.6866 11.3463 -0.369399 0.661066 -0.324803 -0.339942 0.676685 -22.8595 -0.550993 0.519491 -2.84682 -0.550995 0.519486 90.0139 -31.279 -106.252 47.5613 -8.02166 5.93119 -2.30507 -24.9493 -22.5379 -24.1698 -0.150088 -11.2699 -89.6703 -53.7103 79.97 -18.1553 7.51912 -14.1719 0.717206 10.8871 -2.70612 3.78467 0.0244487 -2.23249 -3.5667 -3.02606 -20.1562 -4.8788 -0.722798 -3.83162 
20.5203 98.7165 12.3232 -101.157 -36.7316 -100.354 -175.616 18.7374 95.2052 -65.3965 3.76342 4.66538 70.9984 7.70324 2.18038 6.91225 -14.2875 4.04637 178.96 2.83632 101.395 -24.6239 -11.9513 1.30729 70.7785 -6.73828 -6.32265 11.2003 4.57709 5.33707 0.515361 7.83697 -89.6981 11.1974 1.16618 0.486441 -0.47314 1.18647 0.434627 -23.0106 0.96606 0.814448 -2.9979 0.96607 0.814443 88.4995 -32.7028 -108.615 39.7266 -8.10856 -1.79482 -4.03114 -26.1305 -26.325 -26.9457 -0.232568 -10.7087 -87.9785 -52.5577 82.2073 -25.9841 6.12466 4.47403 1.31035 -3.88872 -7.49882 5.3284 0.00732618 -2.96925 -3.89917 -2.44133 -24.8656 -3.91539 0.256256 -3.54804 
18.8491 98.7662 14.0782 -98.3461 -17.1731 -95.5362 -179.701 21.7877 93.011 -58.6683 2.54958 5.87258 74.9689 10.8986 3.10369 4.51205 -15.6147 3.59325 -178.987 0.264184 101.445 -28.0613 -27.5598 -2.54723 71.1776 -7.70451 -6.12255 10.3773 4.08902 7.78222 1.31673 8.07396 -89.6663 10.7236 2.77604 0.410255 -0.944409 2.79137 0.287588 -23.4994 2.52432 1.22609 -3.48677 2.52432 1.22608 86.6495 -33.8916 -111.582 33.972 -7.51465 -9.78054 -3.82333 -26.464 -24.1236 -28.817 -0.301581 -10.1087 -87.1356 -51.9528 83.3412 -32.5902 7.32681 14.8873 -0.121721 2.84899 -9.08646 -2.00836 -0.113168 -4.96267 -5.20147 -1.53312 -26.8222 -2.87605 1.02449 -4.19797 
16.2271 98.8742 15.8883 -97.6785 0.212944 -94.954 178.994 22.8225 89.2651 -46.5642 11.1273 4.69891 71.5925 8.2982 0.459177 10.6566 -12.6305 5.6402 -179.906 -3.20863 98.4795 -31.0771 -42.996 -5.14841 71.3396 -8.89719 -5.42579 10.8021 3.87467 8.09391 1.83036 8.27765 -89.5387 10.3124 3.85765 0.582757 -1.35289 3.87955 0.412152 -23.9266 3.50395 1.71652 -3.91394 3.50398 1.71651 85.0037 -32.9329 -115.05 32.6052 -8.83699 -13.9488 -3.80068 -28.7586 -23.5624 -26.3324 -0.464694 -10.393 -87.6803 -53.1637 82.7438 -33.1279 8.18 15.7841 -0.297351 22.3511 -9.11777 -12.4628 0.346696 -9.0133 -6.08016 -1.15168 -26.7578 -3.2289 1.22177 -6.36562 
11.7982 98.4263 16.7515 -96.7996 9.3795 -93.0281 179.702 21.5461 85.1662 -27.2321 24.9433 1.21783 66.3719 4.41831 -2.38309 24.2849 -5.91568 11.8289 178.633 -5.90833 95.4801 -33.7531 -52.9416 -7.04114 72.0883 -11.314 -6.84782 9.67858 3.43334 10.5436 1.89038 8.23285 -89.3919 10.3966 4.04443 0.853949 -1.26816 4.07806 0.674829 -23.8432 3.6006 2.03135 -3.83051 3.60061 2.03135 84.3321 -32.2031 -116.646 32.0237 -13.6214 -15.7278 -1.73623 -30.5813 -20.9047 -26.3522 -0.804593 -9.0953 -87.5314 -53.9239 83.0827 -30.6932 9.93081 13.6143 -0.00428934 24.5998 -10.4505 -10.0107 0.162017 -8.15166 -6.54773 -1.40779 -25.5934 -3.28784 0.779364 -7.95425 
5.69684 97.46 16.4621 -96.052 16.2714 -92.356 -179.716 19.9938 81.1862 -18.4397 21.7017 -0.883427 64.6063 2.50017 -5.4563 24.5164 -5.58092 11.4014 177.723 -9.40548 93.3265 -35.8831 -56.2321 -9.03117 73.3294 -12.6188 -6.46318 9.03389 3.0574 12.2783 1.80963 7.99834 -89.2826 10.8618 3.93459 1.05808 -0.803476 3.97728 0.883636 -23.3737 3.43456 2.19278 -3.36102 3.43454 2.19277 83.6235 -32.2423 -117.936 32.7976 -16.7225 -14.6589 1.8329 -31.7131 -16.6888 -24.0665 -0.897105 -9.07192 -87.6315 -53.8461 82.9259 -25.0957 10.0216 10.4705 0.140825 13.66 -10.5326 -3.97062 -0.0882968 -4.77722 -8.01096 -1.90414 -23.5662 -2.14571 -0.265493 -8.98084 
-1.97412 97.3838 14.2494 -96.5199 22.5559 -93.7358 179.972 20.0042 78.6092 -27.2143 22.6958 -0.667839 63.6491 1.72952 -3.73351 15.1646 -10.0482 6.39781 177.257 -14.3608 90.5367 -39.5603 -56.0259 -14.6629 70.1762 -8.46769 -4.12516 12.6366 1.83934 13.9974 1.67256 7.75571 -88.9428 11.339 3.82127 1.7212 -0.327237 3.89332 1.55116 -22.8863 3.12737 2.79058 -2.87361 3.12735 2.79059 83.4235 -33.1382 -117.843 34.8692 -17.9519 -12.028 4.98786 -34.755 -11.5715 -22.2838 -1.37865 -7.14238 -87.407 -55.2424 83.4686 -17.4328 5.72748 5.5602 1.3148 0.523039 -7.73829 1.80539 -0.089881 -4.19787 -10.9049 -1.93468 -23.9058 -1.68526 -0.9467 -9.55716 
-8.61185 97.3303 11.5671 -98.1437 29.4953 -94.4082 -177.795 15.7138 77.9429 -31.1952 18.1897 -2.41347 69.2408 5.13568 -3.12933 15.1547 -9.44402 4.95287 174.317 -14.9441 85.5605 -41.7809 -50.8507 -12.4967 60.8213 -0.410637 2.33079 31.8189 -1.66219 3.86633 1.48068 7.64733 -88.6917 11.541 3.55771 2.24224 -0.126714 3.65295 2.08338 -22.6715 2.71967 3.20775 -2.65889 2.71965 3.20775 84.7503 -32.4387 -115.753 38.4711 -18.9076 -8.18638 7.12521 -32.2807 -9.79249 -22.5361 -1.40605 -6.07437 -87.2307 -54.9526 83.6745 -13.4493 4.47381 -0.869588 1.45673 -12.6833 -6.08227 3.48558 -0.068461 -3.94039 -12.3197 -1.74856 -23.5695 -2.47288 -1.00564 -9.67671 
-13.1241 98.2476 9.92346 -99.281 39.4347 -92.3375 -176.443 10.4927 79.0458 -29.2696 11.6784 -3.42714 72.3301 6.50319 -4.20866 16.6401 -9.00006 6.21066 174.792 -3.41736 82.0727 -55.956 -36.2561 -9.5176 65.5212 -3.62309 -0.875966 29.572 -0.646019 3.10029 1.18508 7.71255 -88.9207 11.4238 2.86187 1.86051 -0.245126 2.94096 1.73271 -22.7857 2.17057 2.63455 -2.77307 2.17057 2.63454 85.8444 -30.9851 -114.405 37.476 -20.0295 -5.41473 4.8438 -31.7415 -13.3758 -25.445 -1.06283 -7.96719 -87.5881 -53.9382 83.0035 -11.7304 5.79547 -5.74301 0.866659 -8.56161 -9.90283 3.24956 -0.163679 -5.85961 -10.7809 -0.393494 -21.2144 -2.21545 0.558782 -6.97479 
-16.4163 99.5441 8.57716 -101.071 47.6094 -88.0753 -175.505 4.37718 81.3082 -23.5075 7.92603 -3.62275 72.6671 6.82941 -4.74009 16.6248 -8.17222 4.0633 177.669 9.12476 84.2297 -59.5697 -18.1858 -7.28188 72.3194 -8.44162 -4.18464 23.9729 0.898416 4.33262 0.61108 7.90824 -89.2152 11.0462 1.58034 1.40979 -0.624475 1.64086 1.33887 -23.1577 1.08365 1.8195 -3.14502 1.08364 1.81949 85.7933 -32.5758 -113.75 35.4183 -14.0281 -3.78564 2.7619 -27.5193 -15.6808 -26.6121 -1.128 -6.34169 -88.4237 -51.2482 81.3225 -8.49097 7.66147 -10.7263 0.403716 -3.91196 -12.3201 2.48415 -0.238983 -7.92531 -11.0227 2.419 -19.8085 -1.41781 3.24269 -4.58477 
-19.4408 100.372 6.84687 -101.011 52.1098 -84.6986 -175.213 0.848727 83.1528 -19.7813 3.54799 -3.03304 74.1217 7.67052 -4.7767 14.6375 -9.21959 3.62577 -178.51 18.0711 89.3533 -49.4179 -11.0424 -6.76485 71.0061 -7.39023 -4.49633 18.3318 2.41183 5.32693 -0.0269039 7.99302 -89.5691 10.8868 0.145804 0.845022 -0.784427 0.182833 0.837793 -23.3174 -0.114907 0.849779 -3.30472 -0.114904 0.849775 86.2734 -33.5882 -112.409 35.5832 -9.50117 -2.46817 2.40681 -23.1333 -14.0733 -27.1136 -0.68314 -7.38569 -88.4866 -49.3666 80.8717 -4.01101 7.956 -18.8227 0.0187868 -0.276418 -9.76193 0.112761 -0.167082 -7.962 -11.4512 4.65872 -18.1489 -1.18671 5.36733 -1.42726 
-22.7373 100.413 4.20811 -99.2947 51.9252 -83.4199 -174.977 -1.21911 84.5686 -19.2737 2.81136 -2.14943 77.4326 9.23286 -4.79889 13.5506 -9.92371 3.71549 -176.559 21.6998 93.0879 -33.0145 -16.5238 -6.11424 65.8628 -4.48575 -4.71786 19.287 1.96679 6.03439 -0.732845 8.07575 -89.9486 10.7258 -1.43576 0.233073 -0.944409 -1.42409 0.296037 -23.4857 -1.4394 -0.209297 -3.47306 -1.43942 -0.209301 86.5966 -34.4816 -111.428 36.5487 -8.175 0.834374 3.06732 -22.5754 -13.6957 -26.0645 -0.644538 -7.47899 -88.9431 -47.1572 79.7334 -5.0802 6.44547 -26.9392 0.706822 1.1461 -7.16194 1.77785 -0.212896 -7.73805 -9.18418 5.18605 -16.4673 -2.13152 6.15666 1.05408 
-27.1806 99.85 0.305204 -97.7442 49.6988 -83.641 -174.5 -5.34556 85.5462 -17.4867 4.79636 -1.79221 80.2713 10.5829 -5.08697 15.683 -8.93153 4.51674 -179.39 20.3946 95.4735 -15.9158 -15.5151 -1.85237 64.1145 -3.10578 -1.97727 20.2537 1.80252 5.46797 -1.20553 8.12525 -90.1511 10.6244 -2.47039 -0.0764819 -1.04416 -2.47135 0.0323825 -23.5966 -2.33315 -0.815815 -3.58399 -2.33312 -0.815808 87.0847 -36.2153 -109.845 38.7066 -6.76429 4.62158 5.18899 -23.3315 -9.33754 -23.9887 -0.655904 -7.80882 -90.2259 -45.386 77.3342 -10.4307 5.91033 -33.4731 2.34019 3.55754 -8.14441 2.68309 -0.256108 -8.11924 -7.16631 4.33744 -17.5994 -2.93551 5.65022 4.57593 
-32.8226 98.3275 -5.13536 -96.8404 49.4296 -83.1419 -173.639 -10.9023 86.6816 -15.876 4.9465 -1.53323 84.1076 12.7929 -5.07453 17.5242 -7.66283 4.17106 179.362 17.9481 98.5748 -7.99426 -9.11766 1.90621 63.0147 -2.61414 -2.22017 23.6568 1.00506 4.2763 -1.35879 8.06061 -90.4229 10.747 -2.90071 -0.573194 -0.920804 -2.92313 -0.44488 -23.4765 -2.59427 -1.41899 -3.46384 -2.59427 -1.419 86.8969 -37.1317 -109.824 40.8188 -4.89043 8.21879 6.60101 -23.5851 -6.20846 -20.1402 -0.729715 -7.85995 -91.2416 -47.1789 76.1934 -15.3267 8.73073 -36.4425 3.4152 7.3535 -12.7506 0.251222 -0.177721 -11.0037 -6.55239 3.8151 -16.3053 -3.18587 5.09523 5.54719 
